<mxfile host="app.diagrams.net" modified="2020-11-15T05:53:06.105Z" agent="5.0 (Windows NT 10.0; Win64; x64) AppleWebKit/537.36 (KHTML, like Gecko) Chrome/85.0.4183.121 Safari/537.36 OPR/71.0.3770.323" etag="9FmsZJSD4mEe5N684iJS" version="13.9.8" type="github">
  <diagram id="Wgviki-l0EfkDVma22c8" name="Page-1">
    <mxGraphModel dx="1381" dy="764" grid="1" gridSize="10" guides="1" tooltips="1" connect="1" arrows="1" fold="1" page="1" pageScale="1" pageWidth="827" pageHeight="1169" math="0" shadow="0">
      <root>
        <mxCell id="0" />
        <mxCell id="1" parent="0" />
        <mxCell id="wHfE8MEaqCjV4gWGgt7V-4" value="" style="edgeStyle=orthogonalEdgeStyle;rounded=0;orthogonalLoop=1;jettySize=auto;html=1;" edge="1" parent="1" source="wHfE8MEaqCjV4gWGgt7V-1" target="wHfE8MEaqCjV4gWGgt7V-2">
          <mxGeometry relative="1" as="geometry" />
        </mxCell>
        <mxCell id="wHfE8MEaqCjV4gWGgt7V-1" value="Start" style="ellipse;whiteSpace=wrap;html=1;" vertex="1" parent="1">
          <mxGeometry x="354" y="60" width="120" height="80" as="geometry" />
        </mxCell>
        <mxCell id="wHfE8MEaqCjV4gWGgt7V-5" value="" style="edgeStyle=orthogonalEdgeStyle;rounded=0;orthogonalLoop=1;jettySize=auto;html=1;" edge="1" parent="1" source="wHfE8MEaqCjV4gWGgt7V-2" target="wHfE8MEaqCjV4gWGgt7V-3">
          <mxGeometry relative="1" as="geometry" />
        </mxCell>
        <mxCell id="wHfE8MEaqCjV4gWGgt7V-2" value="e_start, var_aux, led" style="shape=internalStorage;whiteSpace=wrap;html=1;dx=15;dy=15;rounded=1;arcSize=8;strokeWidth=2;" vertex="1" parent="1">
          <mxGeometry x="301" y="180" width="226" height="90" as="geometry" />
        </mxCell>
        <mxCell id="wHfE8MEaqCjV4gWGgt7V-7" value="" style="edgeStyle=orthogonalEdgeStyle;rounded=0;orthogonalLoop=1;jettySize=auto;html=1;" edge="1" parent="1" source="wHfE8MEaqCjV4gWGgt7V-3" target="wHfE8MEaqCjV4gWGgt7V-6">
          <mxGeometry relative="1" as="geometry" />
        </mxCell>
        <mxCell id="wHfE8MEaqCjV4gWGgt7V-3" value="for(var_aux = 1; e_start &amp;gt; 0; var_aux = var_aux * -1)" style="strokeWidth=2;html=1;shape=mxgraph.flowchart.decision;whiteSpace=wrap;" vertex="1" parent="1">
          <mxGeometry x="237" y="320" width="354" height="110" as="geometry" />
        </mxCell>
        <mxCell id="wHfE8MEaqCjV4gWGgt7V-8" style="edgeStyle=orthogonalEdgeStyle;rounded=0;orthogonalLoop=1;jettySize=auto;html=1;entryX=0.5;entryY=0;entryDx=0;entryDy=0;entryPerimeter=0;" edge="1" parent="1" source="wHfE8MEaqCjV4gWGgt7V-6" target="wHfE8MEaqCjV4gWGgt7V-3">
          <mxGeometry relative="1" as="geometry">
            <Array as="points">
              <mxPoint x="414" y="600" />
              <mxPoint x="150" y="600" />
              <mxPoint x="150" y="300" />
              <mxPoint x="414" y="300" />
            </Array>
          </mxGeometry>
        </mxCell>
        <mxCell id="wHfE8MEaqCjV4gWGgt7V-10" style="edgeStyle=orthogonalEdgeStyle;rounded=0;orthogonalLoop=1;jettySize=auto;html=1;entryX=0.5;entryY=0;entryDx=0;entryDy=0;" edge="1" parent="1" source="wHfE8MEaqCjV4gWGgt7V-6" target="wHfE8MEaqCjV4gWGgt7V-9">
          <mxGeometry relative="1" as="geometry" />
        </mxCell>
        <mxCell id="wHfE8MEaqCjV4gWGgt7V-6" value="led = led + var_aux&lt;br&gt;printf(&quot;led: %d\n&quot;, led)&lt;br&gt;usleep(500000);" style="rounded=1;whiteSpace=wrap;html=1;absoluteArcSize=1;arcSize=14;strokeWidth=2;" vertex="1" parent="1">
          <mxGeometry x="294" y="470" width="240" height="80" as="geometry" />
        </mxCell>
        <mxCell id="wHfE8MEaqCjV4gWGgt7V-9" value="End" style="ellipse;whiteSpace=wrap;html=1;" vertex="1" parent="1">
          <mxGeometry x="354" y="680" width="120" height="80" as="geometry" />
        </mxCell>
      </root>
    </mxGraphModel>
  </diagram>
</mxfile>
